<svg aria-hidden="true" style="width:0;height:0;position:absolute;overflow:hidden" xmlns="http://www.w3.org/2000/svg"><defs><symbol id="arrowDown" viewBox="0 0 32 32"><path d="M3.76 9.143 0 12.622l16 14.806 16-14.806-3.76-3.479L16 20.445 3.76 9.143z"/></symbol><symbol id="arrowUp" viewBox="0 0 32 32"><path d="M3.76 25.143 0 21.664 16 6.858l16 14.806-3.76 3.479L16 13.841 3.76 25.143z"/></symbol><symbol id="calendar" viewBox="0 0 32 32"><path d="M22.667 4H28a1.335 1.335 0 0 1 1.334 1.334v21.333A1.335 1.335 0 0 1 28 28.001H4a1.33 1.33 0 0 1-1.333-1.334V5.334A1.333 1.333 0 0 1 4 4h5.333V1.333H12V4h8V1.333h2.667V4zm4 10.667H5.334v10.667h21.333V14.667zm-6.667-8h-8v2.667H9.333V6.667h-4V12h21.333V6.667h-4v2.667h-2.667V6.667zM8 17.333h2.667V20H8v-2.667zm6.667 0h2.667V20h-2.667v-2.667zm6.666 0H24V20h-2.667v-2.667z"/></symbol><symbol id="favorite" viewBox="0 0 32 32"><path d="M32 16c0 8.837-7.163 16-16 16S0 24.837 0 16 7.163 0 16 0s16 7.163 16 16z"/><path stroke="#f4f4f4" stroke-linejoin="round" stroke-linecap="round" d="M22.63 10.457a4.111 4.111 0 0 0-4.496-.895 4.1 4.1 0 0 0-1.338.895l-.795.795-.795-.795a4.125 4.125 0 0 0-5.836 0 4.125 4.125 0 0 0 0 5.835l6.63 6.63 6.63-6.63a4.111 4.111 0 0 0 .895-4.496 4.116 4.116 0 0 0-.895-1.338v0z"/></symbol><symbol id="heart_empty" viewBox="0 0 32 32"><path stroke-linejoin="round" stroke-linecap="round" stroke-width="2" d="M9.333 4c-3.681 0-6.667 2.955-6.667 6.6 0 2.943 1.167 9.927 12.651 16.987a1.316 1.316 0 0 0 1.366 0c11.484-7.06 12.651-14.044 12.651-16.987 0-3.645-2.985-6.6-6.667-6.6S16 8 16 8s-2.985-4-6.667-4z"/></symbol><symbol id="heart_filled" viewBox="0 0 32 32"><path d="M9.333 4c-3.681 0-6.667 2.955-6.667 6.6 0 2.943 1.167 9.927 12.651 16.987a1.316 1.316 0 0 0 1.366 0c11.484-7.06 12.651-14.044 12.651-16.987 0-3.645-2.985-6.6-6.667-6.6S16 8 16 8s-2.985-4-6.667-4z"/></symbol><symbol id="home" viewBox="0 0 32 32"><path d="M32 16c0 8.837-7.163 16-16 16S0 24.837 0 16 7.163 0 16 0s16 7.163 16 16z"/><path stroke="#f4f4f4" stroke-linejoin="round" stroke-linecap="round" d="M9.25 13.75 16 8.5l6.75 5.25V22a1.503 1.503 0 0 1-1.5 1.5h-10.5a1.503 1.503 0 0 1-1.5-1.5v-8.25z"/><path stroke="#f4f4f4" stroke-linejoin="round" stroke-linecap="round" d="M13.75 23.5V16h4.5v7.5"/></symbol><symbol id="moon" viewBox="0 0 32 32"><path stroke-linejoin="round" stroke-linecap="round" stroke-width="2.526" d="M29.263 17.164A13.262 13.262 0 0 1 3.111 18.83 13.263 13.263 0 0 1 14.836 2.737a10.318 10.318 0 0 0 1.001 13.426 10.317 10.317 0 0 0 13.426 1.001v0z"/></symbol><symbol id="read" viewBox="0 0 32 32"><path fill="#" d="M32 16c0 8.837-7.163 16-16 16S0 24.837 0 16 7.163 0 16 0s16 7.163 16 16z"/><path stroke="#f4f4f4" stroke-linejoin="round" stroke-linecap="round" d="M8.5 9.25H13a3.004 3.004 0 0 1 3 3v10.5a2.25 2.25 0 0 0-2.25-2.25H8.5V9.25zM23.5 9.25H19a3.004 3.004 0 0 0-3 3v10.5a2.25 2.25 0 0 1 2.25-2.25h5.25V9.25z"/></symbol><symbol id="search" viewBox="0 0 32 32"><path d="M13.333 23.6c2.367 0 4.665-.753 6.529-2.138l5.861 5.568 1.885-1.791-5.861-5.568a9.755 9.755 0 0 0 2.252-6.204c0-5.587-4.785-10.133-10.667-10.133S2.665 7.88 2.665 13.467c0 5.587 4.785 10.133 10.667 10.133zm0-17.733c4.412 0 8 3.409 8 7.6s-3.588 7.6-8 7.6-8-3.409-8-7.6 3.588-7.6 8-7.6z"/></symbol><symbol id="sun" viewBox="0 0 32 32"><path stroke-linejoin="round" stroke-linecap="round" stroke-width="2.286" d="M16 1.778v2.586m0 23.272v2.586M5.941 5.941l1.836 1.836m16.446 16.446 1.836 1.836M1.778 16h2.586m23.272 0h2.586M5.941 26.059l1.836-1.836M24.223 7.777l1.836-1.836M22.465 16a6.465 6.465 0 1 1-12.93 0 6.465 6.465 0 0 1 12.93 0z"/></symbol><symbol id="arrowLeft" viewBox="0 0 16 32"><path d="M0 16c0 .596.204 1.107.642 1.55l12.192 12.982c.345.375.784.579 1.301.579 1.034 0 1.865-.886 1.865-2.027 0-.562-.219-1.056-.564-1.448L4.451 16 15.436 4.364c.345-.392.564-.903.564-1.448 0-1.141-.831-2.027-1.865-2.027-.517 0-.956.204-1.301.579L.642 14.433C.203 14.893 0 15.404 0 16z"/></symbol><symbol id="arrowRight" viewBox="0 0 16 32"><path d="M16 16a2.309 2.309 0 0 0-.643-1.567L3.165 1.468c-.36-.375-.784-.579-1.301-.579-1.05 0-1.865.886-1.865 2.027 0 .545.204 1.056.564 1.448L11.533 16 .563 27.636a2.1 2.1 0 0 0-.564 1.448c0 1.142.815 2.027 1.865 2.027.501 0 .94-.204 1.301-.579L15.357 17.55c.439-.443.642-.954.642-1.55z"/></symbol><symbol id="tick" viewBox="0 0 32 32"><path d="M28.78 6.39c-.277.008-.54.124-.733.323L11.734 23.026l-6.713-6.713a1.065 1.065 0 1 0-1.508 1.507l7.467 7.467a1.066 1.066 0 0 0 1.508 0L29.555 8.22a1.072 1.072 0 0 0 .239-1.18 1.066 1.066 0 0 0-1.013-.65z"/></symbol><symbol id="location" viewBox="0 0 32 32"><path d="M16 2A11.018 11.018 0 0 0 5 13a10.892 10.892 0 0 0 2.216 6.6s.3.395.349.452L16 30l8.439-9.953c.044-.053.345-.447.345-.447l.001-.003A10.89 10.89 0 0 0 27 13 11.018 11.018 0 0 0 16 2zm0 15a4.004 4.004 0 0 1-3.695-2.469A4 4 0 1 1 20 13a4.004 4.004 0 0 1-4 4z"/></symbol><symbol id="menu" viewBox="0 0 32 32"><path stroke-linejoin="round" stroke-linecap="round" stroke-width="2.667" d="M4 16h24M4 8h24M4 24h24"/></symbol><symbol id="cross" viewBox="0 0 32 32"><path stroke-linejoin="round" stroke-linecap="round" stroke-width="2.667" d="M24 8 8 24M8 8l16 16"/></symbol><symbol id="burger" viewBox="0 0 32 32"><path d="M4 5.333h24V8H4V5.333zm8 9.334h16v2.667H12v-2.667zM4 24h24v2.667H4V24z"/></symbol><symbol id="news" viewBox="0 0 104 32"><path d="M1.145 30.316V1.213h4.931l13.501 20.514V1.213h4.931v29.103h-4.931L6.076 9.802v20.514H1.145zm38.937.606c-2.21 0-4.15-.478-5.821-1.435s-2.978-2.284-3.921-3.981c-.93-1.698-1.395-3.651-1.395-5.861 0-2.385.458-4.453 1.374-6.205.916-1.765 2.189-3.133 3.82-4.103s3.517-1.455 5.659-1.455c2.264 0 4.184.532 5.76 1.597 1.59 1.051 2.769 2.54 3.537 4.467s1.058 4.197.869 6.811h-4.83v-1.779c-.013-2.371-.431-4.103-1.253-5.194s-2.115-1.637-3.88-1.637c-1.994 0-3.476.62-4.446 1.859-.97 1.226-1.455 3.025-1.455 5.396 0 2.21.485 3.921 1.455 5.133s2.385 1.819 4.244 1.819c1.199 0 2.23-.263 3.092-.788.876-.539 1.549-1.314 2.021-2.324l4.81 1.455c-.835 1.967-2.129 3.496-3.88 4.588-1.738 1.091-3.658 1.637-5.76 1.637zm-7.518-10.166v-3.678H47.58v3.678H32.564zm25.769 9.56L51.664 8.448l4.77.04 4.264 14.006 4.325-14.006h4.103l4.305 14.006 4.285-14.006h4.77l-6.669 21.827h-3.8l-4.952-15.016-4.931 15.016h-3.8zm35.437.606c-2.695 0-4.884-.606-6.568-1.819s-2.708-2.917-3.072-5.113l4.972-.768c.256 1.078.822 1.927 1.698 2.547s1.981.93 3.315.93c1.172 0 2.075-.229 2.708-.687.647-.472.97-1.112.97-1.92 0-.499-.121-.896-.364-1.192-.229-.31-.741-.606-1.536-.889s-2.014-.64-3.658-1.071c-1.832-.485-3.288-1.004-4.365-1.556-1.078-.566-1.853-1.233-2.324-2.001s-.707-1.698-.707-2.789c0-1.361.357-2.547 1.071-3.557s1.711-1.785 2.991-2.324c1.28-.552 2.789-.829 4.527-.829 1.698 0 3.2.263 4.507.788 1.32.525 2.385 1.273 3.193 2.243s1.307 2.109 1.496 3.416l-4.972.889c-.121-.93-.546-1.664-1.273-2.203-.714-.539-1.671-.842-2.87-.909-1.145-.067-2.068.108-2.769.525-.701.404-1.051.977-1.051 1.718 0 .418.141.775.424 1.071s.849.593 1.698.889c.862.296 2.142.66 3.84 1.091 1.738.445 3.126.957 4.163 1.536 1.051.566 1.805 1.246 2.264 2.041.472.795.707 1.758.707 2.89 0 2.196-.802 3.921-2.405 5.174-1.59 1.253-3.793 1.88-6.609 1.88z"/></symbol><symbol id="arrowLeft_page" viewBox="0 0 18 32"><path d="m6.464 16 11.314 11.314-3.232 3.232L0 16 14.546 1.454l3.232 3.232L6.464 16z"/></symbol><symbol id="arrowRight_page" viewBox="0 0 19 32"><path d="M10.15 16 1.097 6.95l4.525-4.528L19.2 16 5.622 29.578 1.097 25.05 10.15 16z"/></symbol></defs></svg>