<svg aria-hidden="true" style="position: absolute; width: 0; height: 0; overflow: hidden;" version="1.1" xmlns="http://www.w3.org/2000/svg" xmlns:xlink="http://www.w3.org/1999/xlink">
<defs>
<symbol id="arrowDown" viewBox="0 0 32 32">
<path fill="" style="" d="M3.76 9.143l-3.76 3.479 16 14.806 16-14.806-3.76-3.479-12.24 11.302-12.24-11.302z"></path>
</symbol>
<symbol id="arrowUp" viewBox="0 0 32 32">
<path fill="" style="" d="M3.76 25.143l-3.76-3.479 16-14.806 16 14.806-3.76 3.479-12.24-11.302-12.24 11.302z"></path>
</symbol>
<symbol id="calendar" viewBox="0 0 32 32">
<path fill="" style="" d="M22.667 4h5.333c0.354 0 0.693 0.14 0.943 0.391s0.391 0.589 0.391 0.943v21.333c0 0.354-0.14 0.693-0.391 0.943s-0.589 0.391-0.943 0.391h-24c-0.354 0-0.693-0.14-0.943-0.391s-0.39-0.589-0.39-0.943v-21.333c0-0.354 0.14-0.693 0.39-0.943s0.589-0.391 0.943-0.391h5.333v-2.667h2.667v2.667h8v-2.667h2.667v2.667zM26.667 14.667h-21.333v10.667h21.333v-10.667zM20 6.667h-8v2.667h-2.667v-2.667h-4v5.333h21.333v-5.333h-4v2.667h-2.667v-2.667zM8 17.333h2.667v2.667h-2.667v-2.667zM14.667 17.333h2.667v2.667h-2.667v-2.667zM21.333 17.333h2.667v2.667h-2.667v-2.667z"></path>
</symbol>
<symbol id="favorite" viewBox="0 0 32 32">
<path fill="" style="" d="M32 16c0 8.837-7.163 16-16 16s-16-7.163-16-16c0-8.837 7.163-16 16-16s16 7.163 16 16z"></path>
<path fill="" stroke="#f4f4f4" style="" stroke-linejoin="round" stroke-linecap="round" stroke-miterlimit="4" stroke-width="1" d="M22.63 10.457c-0.383-0.383-0.838-0.687-1.338-0.895s-1.037-0.314-1.579-0.314c-0.542 0-1.078 0.107-1.579 0.314s-0.955 0.511-1.338 0.895l-0.795 0.795-0.795-0.795c-0.774-0.774-1.823-1.208-2.918-1.208s-2.144 0.435-2.918 1.208c-0.774 0.774-1.208 1.823-1.208 2.918s0.435 2.144 1.208 2.917l6.63 6.63 6.63-6.63c0.383-0.383 0.687-0.838 0.895-1.338s0.314-1.037 0.314-1.579c0-0.542-0.107-1.078-0.314-1.579s-0.512-0.955-0.895-1.338v0z"></path>
</symbol>
<symbol id="heart_empty" viewBox="0 0 32 32">
<path  style="" stroke-linejoin="round" stroke-linecap="round" stroke-miterlimit="4" stroke-width="2" d="M9.333 4c-3.681 0-6.667 2.955-6.667 6.6 0 2.943 1.167 9.927 12.651 16.987 0.206 0.125 0.442 0.191 0.683 0.191s0.477-0.066 0.683-0.191c11.484-7.060 12.651-14.044 12.651-16.987 0-3.645-2.985-6.6-6.667-6.6s-6.667 4-6.667 4-2.985-4-6.667-4z"></path>
</symbol>
<symbol id="heart_filled" viewBox="0 0 32 32">
<path fill="" style="" d="M9.333 4c-3.681 0-6.667 2.955-6.667 6.6 0 2.943 1.167 9.927 12.651 16.987 0.206 0.125 0.442 0.191 0.683 0.191s0.477-0.066 0.683-0.191c11.484-7.060 12.651-14.044 12.651-16.987 0-3.645-2.985-6.6-6.667-6.6s-6.667 4-6.667 4-2.985-4-6.667-4z"></path>
</symbol>
<symbol id="home" viewBox="0 0 32 32">
<path fill="" style="" d="M32 16c0 8.837-7.163 16-16 16s-16-7.163-16-16c0-8.837 7.163-16 16-16s16 7.163 16 16z"></path>
<path fill="" stroke="#f4f4f4" style="" stroke-linejoin="round" stroke-linecap="round" stroke-miterlimit="4" stroke-width="1" d="M9.25 13.75l6.75-5.25 6.75 5.25v8.25c0 0.398-0.158 0.779-0.439 1.061s-0.663 0.439-1.061 0.439h-10.5c-0.398 0-0.779-0.158-1.061-0.439s-0.439-0.663-0.439-1.061v-8.25z"></path>
<path fill="" stroke="#f4f4f4" style="" stroke-linejoin="round" stroke-linecap="round" stroke-miterlimit="4" stroke-width="1" d="M13.75 23.5v-7.5h4.5v7.5"></path>
</symbol>
<symbol id="moon" viewBox="0 0 32 32">
<path fill="" stroke="" style="" stroke-linejoin="round" stroke-linecap="round" stroke-miterlimit="4" stroke-width="2.5263" d="M29.263 17.164c-0.232 2.509-1.173 4.899-2.714 6.892s-3.618 3.506-5.987 4.362c-2.369 0.856-4.934 1.019-7.392 0.471s-4.711-1.785-6.492-3.567c-1.781-1.781-3.019-4.033-3.567-6.492s-0.385-5.023 0.471-7.392 2.369-4.446 4.362-5.987c1.993-1.541 4.384-2.482 6.892-2.714-1.469 1.987-2.175 4.435-1.992 6.899s1.246 4.78 2.993 6.527c1.747 1.747 4.063 2.809 6.527 2.993s4.912-0.523 6.899-1.992v0z"></path>
</symbol>
<symbol id="read" viewBox="0 0 32 32">
<path fill="#" style="" d="M32 16c0 8.837-7.163 16-16 16s-16-7.163-16-16c0-8.837 7.163-16 16-16s16 7.163 16 16z"></path>
<path fill="" stroke="#f4f4f4" style="" stroke-linejoin="round" stroke-linecap="round" stroke-miterlimit="4" stroke-width="1" d="M8.5 9.25h4.5c0.796 0 1.559 0.316 2.121 0.879s0.879 1.326 0.879 2.121v10.5c0-0.597-0.237-1.169-0.659-1.591s-0.994-0.659-1.591-0.659h-5.25v-11.25z"></path>
<path fill="" stroke="#f4f4f4" style="" stroke-linejoin="round" stroke-linecap="round" stroke-miterlimit="4" stroke-width="1" d="M23.5 9.25h-4.5c-0.796 0-1.559 0.316-2.121 0.879s-0.879 1.326-0.879 2.121v10.5c0-0.597 0.237-1.169 0.659-1.591s0.994-0.659 1.591-0.659h5.25v-11.25z"></path>
</symbol>
<symbol id="search" viewBox="0 0 32 32">
<path d="M13.333 23.6c2.367-0 4.665-0.753 6.529-2.138l5.861 5.568 1.885-1.791-5.861-5.568c1.459-1.771 2.251-3.955 2.252-6.204 0-5.587-4.785-10.133-10.667-10.133s-10.667 4.546-10.667 10.133c0 5.587 4.785 10.133 10.667 10.133zM13.333 5.867c4.412 0 8 3.409 8 7.6s-3.588 7.6-8 7.6c-4.412 0-8-3.409-8-7.6s3.588-7.6 8-7.6z"></path>
</symbol>
<symbol id="sun" viewBox="0 0 32 32">
<path fill="" stroke="" style="" stroke-linejoin="round" stroke-linecap="round" stroke-miterlimit="4" stroke-width="2.2857" d="M16 1.778v2.586M16 27.636v2.586M5.941 5.941l1.836 1.836M24.223 24.223l1.836 1.836M1.778 16h2.586M27.636 16h2.586M5.941 26.059l1.836-1.836M24.223 7.777l1.836-1.836M22.465 16c0 3.57-2.894 6.465-6.465 6.465s-6.465-2.894-6.465-6.465c0-3.57 2.894-6.465 6.465-6.465s6.465 2.894 6.465 6.465z"></path>
</symbol>
<symbol id="arrowLeft" viewBox="0 0 16 32">
<path fill="" style="" d="M0 16c0 0.596 0.204 1.107 0.642 1.55l12.192 12.982c0.345 0.375 0.784 0.579 1.301 0.579 1.034 0 1.865-0.886 1.865-2.027 0-0.562-0.219-1.056-0.564-1.448l-10.985-11.636 10.985-11.636c0.345-0.392 0.564-0.903 0.564-1.448 0-1.141-0.831-2.027-1.865-2.027-0.517 0-0.956 0.204-1.301 0.579l-12.192 12.965c-0.439 0.46-0.642 0.971-0.642 1.567z"></path>
</symbol>
<symbol id="arrowRight" viewBox="0 0 16 32">
<path fill="" style="" d="M16 16c-0.016-0.596-0.219-1.107-0.643-1.567l-12.192-12.965c-0.36-0.375-0.784-0.579-1.301-0.579-1.050 0-1.865 0.886-1.865 2.027 0 0.545 0.204 1.056 0.564 1.448l10.97 11.636-10.97 11.636c-0.36 0.392-0.564 0.886-0.564 1.448 0 1.142 0.815 2.027 1.865 2.027 0.501 0 0.94-0.204 1.301-0.579l12.192-12.982c0.439-0.443 0.642-0.954 0.642-1.55z"></path>
</symbol>
<symbol id="tick" viewBox="0 0 32 32">
<path fill="" style="" d="M28.78 6.39c-0.277 0.008-0.54 0.124-0.733 0.323l-16.313 16.313-6.713-6.713c-0.098-0.102-0.216-0.184-0.346-0.24s-0.27-0.086-0.412-0.088c-0.142-0.001-0.283 0.025-0.414 0.079s-0.251 0.133-0.351 0.233c-0.1 0.1-0.18 0.22-0.233 0.351s-0.081 0.272-0.079 0.414c0.001 0.142 0.031 0.282 0.087 0.412s0.138 0.248 0.24 0.346l7.467 7.467c0.2 0.2 0.471 0.312 0.754 0.312s0.554-0.112 0.754-0.312l17.067-17.067c0.154-0.15 0.259-0.343 0.302-0.553s0.021-0.429-0.063-0.627c-0.084-0.198-0.225-0.366-0.406-0.482s-0.393-0.175-0.607-0.168z"></path>
</symbol>
<symbol id="location" viewBox="0 0 32 32">
<path fill="" style="" d="M16 2c-2.916 0.003-5.712 1.163-7.774 3.226s-3.222 4.858-3.226 7.774c-0.003 2.383 0.775 4.702 2.216 6.6 0 0 0.3 0.395 0.349 0.452l8.435 9.948 8.439-9.953c0.044-0.053 0.345-0.447 0.345-0.447l0.001-0.003c1.44-1.897 2.218-4.215 2.215-6.597-0.003-2.916-1.163-5.712-3.226-7.774s-4.858-3.222-7.774-3.226zM16 17c-0.791 0-1.564-0.235-2.222-0.674s-1.171-1.064-1.473-1.795c-0.303-0.731-0.382-1.535-0.228-2.311s0.535-1.489 1.095-2.048 1.272-0.94 2.048-1.095c0.776-0.154 1.58-0.075 2.311 0.228s1.356 0.815 1.795 1.473c0.44 0.658 0.674 1.431 0.674 2.222-0.001 1.060-0.423 2.077-1.173 2.827s-1.767 1.172-2.827 1.173z"></path>
</symbol>
<symbol id="menu" viewBox="0 0 32 32">
<path stroke-linejoin="round" stroke-linecap="round" stroke-miterlimit="4" stroke-width="2.6667" fill="" d="M4 16h24"></path>
<path stroke-linejoin="round" stroke-linecap="round" stroke-miterlimit="4" stroke-width="2.6667" fill="" d="M4 8h24"></path>
<path stroke-linejoin="round" stroke-linecap="round" stroke-miterlimit="4" stroke-width="2.6667" fill="" d="M4 24h24"></path>
</symbol>
<symbol id="cross" viewBox="0 0 32 32">
<path fill="" stroke="" style="" stroke-linejoin="round" stroke-linecap="round" stroke-miterlimit="4" stroke-width="2.6667" d="M24 8l-16 16M8 8l16 16"></path>
</symbol>
<symbol id="burger" viewBox="0 0 32 32">
<path d="M4 5.333h24v2.667h-24v-2.667zM12 14.667h16v2.667h-16v-2.667zM4 24h24v2.667h-24v-2.667z"></path>
</symbol>
<symbol id="news" viewBox="0 0 104 32">
<path d="M1.145 30.316v-29.103h4.931l13.501 20.514v-20.514h4.931v29.103h-4.931l-13.501-20.514v20.514h-4.931zM40.082 30.922c-2.21 0-4.15-0.478-5.821-1.435s-2.978-2.284-3.921-3.981c-0.93-1.698-1.395-3.651-1.395-5.861 0-2.385 0.458-4.453 1.374-6.205 0.916-1.765 2.189-3.133 3.82-4.103s3.517-1.455 5.659-1.455c2.264 0 4.184 0.532 5.76 1.597 1.59 1.051 2.769 2.54 3.537 4.467s1.058 4.197 0.869 6.811h-4.83v-1.779c-0.013-2.371-0.431-4.103-1.253-5.194s-2.115-1.637-3.88-1.637c-1.994 0-3.476 0.62-4.446 1.859-0.97 1.226-1.455 3.025-1.455 5.396 0 2.21 0.485 3.921 1.455 5.133s2.385 1.819 4.244 1.819c1.199 0 2.23-0.263 3.092-0.788 0.876-0.539 1.549-1.314 2.021-2.324l4.81 1.455c-0.835 1.967-2.129 3.496-3.88 4.588-1.738 1.091-3.658 1.637-5.76 1.637zM32.564 20.756v-3.678h15.016v3.678h-15.016zM58.333 30.316l-6.669-21.868 4.77 0.040 4.264 14.006 4.325-14.006h4.103l4.305 14.006 4.285-14.006h4.77l-6.669 21.827h-3.8l-4.952-15.016-4.931 15.016h-3.8zM93.77 30.922c-2.695 0-4.884-0.606-6.568-1.819s-2.708-2.917-3.072-5.113l4.972-0.768c0.256 1.078 0.822 1.927 1.698 2.547s1.981 0.93 3.315 0.93c1.172 0 2.075-0.229 2.708-0.687 0.647-0.472 0.97-1.112 0.97-1.92 0-0.499-0.121-0.896-0.364-1.192-0.229-0.31-0.741-0.606-1.536-0.889s-2.014-0.64-3.658-1.071c-1.832-0.485-3.288-1.004-4.365-1.556-1.078-0.566-1.853-1.233-2.324-2.001s-0.707-1.698-0.707-2.789c0-1.361 0.357-2.547 1.071-3.557s1.711-1.785 2.991-2.324c1.28-0.552 2.789-0.829 4.527-0.829 1.698 0 3.2 0.263 4.507 0.788 1.32 0.525 2.385 1.273 3.193 2.243s1.307 2.109 1.496 3.416l-4.972 0.889c-0.121-0.93-0.546-1.664-1.273-2.203-0.714-0.539-1.671-0.842-2.87-0.909-1.145-0.067-2.068 0.108-2.769 0.525-0.701 0.404-1.051 0.977-1.051 1.718 0 0.418 0.141 0.775 0.424 1.071s0.849 0.593 1.698 0.889c0.862 0.296 2.142 0.66 3.84 1.091 1.738 0.445 3.126 0.957 4.163 1.536 1.051 0.566 1.805 1.246 2.264 2.041 0.472 0.795 0.707 1.758 0.707 2.89 0 2.196-0.802 3.921-2.405 5.174-1.59 1.253-3.793 1.88-6.609 1.88z"></path>
</symbol>
<symbol id="arrowLeft_page" viewBox="0 0 18 32">
<path d="M6.464 16l11.314 11.314-3.232 3.232-14.546-14.546 14.546-14.546 3.232 3.232-11.314 11.314z"></path>
</symbol>
<symbol id="arrowRight_page" viewBox="0 0 19 32">
<path d="M10.15 16l-9.053-9.050 4.525-4.528 13.578 13.578-13.578 13.578-4.525-4.528 9.053-9.050z"></path>
</symbol>
</defs>
</svg>
