<svg width="62" height="19" viewBox="0 0 62 19" fill="none" xmlns="http://www.w3.org/2000/svg">
    <path
        d="M0.68 18V0.719999H3.608L11.624 12.9V0.719999H14.552V18H11.624L3.608 5.82V18H0.68ZM23.7986 18.36C22.4866 18.36 21.3346 18.076 20.3426 17.508C19.3506 16.94 18.5746 16.152 18.0146 15.144C17.4626 14.136 17.1866 12.976 17.1866 11.664C17.1866 10.248 17.4586 9.02 18.0026 7.98C18.5466 6.932 19.3026 6.12 20.2706 5.544C21.2386 4.968 22.3586 4.68 23.6306 4.68C24.9746 4.68 26.1146 4.996 27.0506 5.628C27.9946 6.252 28.6946 7.136 29.1506 8.28C29.6066 9.424 29.7786 10.772 29.6666 12.324H26.7986V11.268C26.7906 9.86 26.5426 8.832 26.0546 8.184C25.5666 7.536 24.7986 7.212 23.7506 7.212C22.5666 7.212 21.6866 7.58 21.1106 8.316C20.5346 9.044 20.2466 10.112 20.2466 11.52C20.2466 12.832 20.5346 13.848 21.1106 14.568C21.6866 15.288 22.5266 15.648 23.6306 15.648C24.3426 15.648 24.9546 15.492 25.4666 15.18C25.9866 14.86 26.3866 14.4 26.6666 13.8L29.5226 14.664C29.0266 15.832 28.2586 16.74 27.2186 17.388C26.1866 18.036 25.0466 18.36 23.7986 18.36ZM19.3346 12.324V10.14H28.2506V12.324H19.3346ZM34.6353 18L30.6753 5.016L33.5073 5.04L36.0393 13.356L38.6073 5.04H41.0433L43.5993 13.356L46.1433 5.04H48.9753L45.0153 18H42.7593L39.8193 9.084L36.8913 18H34.6353ZM55.6762 18.36C54.0762 18.36 52.7762 18 51.7762 17.28C50.7762 16.56 50.1682 15.548 49.9522 14.244L52.9042 13.788C53.0562 14.428 53.3922 14.932 53.9122 15.3C54.4322 15.668 55.0882 15.852 55.8802 15.852C56.5762 15.852 57.1122 15.716 57.4882 15.444C57.8722 15.164 58.0642 14.784 58.0642 14.304C58.0642 14.008 57.9922 13.772 57.8482 13.596C57.7122 13.412 57.4082 13.236 56.9362 13.068C56.4642 12.9 55.7402 12.688 54.7642 12.432C53.6762 12.144 52.8122 11.836 52.1722 11.508C51.5322 11.172 51.0722 10.776 50.7922 10.32C50.5122 9.864 50.3722 9.312 50.3722 8.664C50.3722 7.856 50.5842 7.152 51.0082 6.552C51.4322 5.952 52.0242 5.492 52.7842 5.172C53.5442 4.844 54.4402 4.68 55.4722 4.68C56.4802 4.68 57.3722 4.836 58.1482 5.148C58.9322 5.46 59.5642 5.904 60.0442 6.48C60.5242 7.056 60.8202 7.732 60.9322 8.508L57.9802 9.036C57.9082 8.484 57.6562 8.048 57.2242 7.728C56.8002 7.408 56.2322 7.228 55.5202 7.188C54.8402 7.148 54.2922 7.252 53.8762 7.5C53.4602 7.74 53.2522 8.08 53.2522 8.52C53.2522 8.768 53.3362 8.98 53.5042 9.156C53.6722 9.332 54.0082 9.508 54.5122 9.684C55.0242 9.86 55.7842 10.076 56.7922 10.332C57.8242 10.596 58.6482 10.9 59.2642 11.244C59.8882 11.58 60.3362 11.984 60.6082 12.456C60.8882 12.928 61.0282 13.5 61.0282 14.172C61.0282 15.476 60.5522 16.5 59.6002 17.244C58.6562 17.988 57.3482 18.36 55.6762 18.36Z"
        fill="#111321" />
</svg>