<svg width="16" height="12" viewBox="0 0 16 12" fill="none" xmlns="http://www.w3.org/2000/svg">
<path d="M15.1885 0.594133C15.0326 0.598778 14.8847 0.663925 14.776 0.775774L5.6002 9.95155L1.82442 6.17577C1.76913 6.11819 1.70291 6.07222 1.62963 6.04054C1.55635 6.00887 1.47749 5.99214 1.39767 5.99133C1.31784 5.99052 1.23866 6.00564 1.16475 6.03581C1.09085 6.06599 1.0237 6.11061 0.967257 6.16705C0.91081 6.2235 0.866193 6.29064 0.83602 6.36455C0.805846 6.43846 0.790723 6.51764 0.791535 6.59746C0.792347 6.67729 0.809079 6.75615 0.84075 6.82943C0.872421 6.9027 0.918394 6.96892 0.975978 7.02421L5.17598 11.2242C5.2885 11.3367 5.44109 11.3999 5.6002 11.3999C5.7593 11.3999 5.91189 11.3367 6.02442 11.2242L15.6244 1.62421C15.7111 1.53993 15.7703 1.43143 15.7943 1.31292C15.8183 1.19441 15.8059 1.07141 15.7588 0.960063C15.7117 0.848712 15.632 0.754194 15.5302 0.688897C15.4285 0.623599 15.3093 0.590569 15.1885 0.594133Z" fill="#00DD73"/>
</svg>
